<svg id="visual" viewBox="0 0 900 600" width="900" height="600" xmlns="http://www.w3.org/2000/svg" xmlns:xlink="http://www.w3.org/1999/xlink" version="1.1"><g stroke-width="2" stroke-linejoin="bevel"><path d="M444.4 291.7L483.6 303.7L522.8 255.7Z" fill="#050505" stroke="#000000"></path><path d="M522.8 255.7L449.6 189L444.4 291.7Z" fill="#000000" stroke="#000000"></path><path d="M449.6 189L434.4 196L444.4 291.7Z" fill="#060606" stroke="#000000"></path><path d="M373.2 234L385.4 296.3L444.4 291.7Z" fill="#070707" stroke="#000000"></path><path d="M414.4 378L512.6 366.3L483.6 303.7Z" fill="#050505" stroke="#000000"></path><path d="M434.4 196L373.2 234L444.4 291.7Z" fill="#090909" stroke="#000000"></path><path d="M532.8 162.3L470.6 150.3L449.6 189Z" fill="#000000" stroke="#000000"></path><path d="M449.6 189L385.4 158.3L434.4 196Z" fill="#0a0a0a" stroke="#000000"></path><path d="M434.4 196L385.4 158.3L373.2 234Z" fill="#070707" stroke="#000000"></path><path d="M522.8 255.7L532.8 162.3L449.6 189Z" fill="#010101" stroke="#000000"></path><path d="M563.8 190L532.8 162.3L522.8 255.7Z" fill="#020202" stroke="#000000"></path><path d="M414.4 378L483.6 303.7L444.4 291.7Z" fill="#060606" stroke="#000000"></path><path d="M483.6 303.7L573.8 358.3L522.8 255.7Z" fill="#020202" stroke="#000000"></path><path d="M632.1 267.7L592.1 184L563.8 190Z" fill="#080808" stroke="#000000"></path><path d="M470.6 150.3L385.4 158.3L449.6 189Z" fill="#020202" stroke="#000000"></path><path d="M385.4 296.3L414.4 378L444.4 291.7Z" fill="#070707" stroke="#000000"></path><path d="M632.1 267.7L563.8 190L522.8 255.7Z" fill="#0b0b0b" stroke="#000000"></path><path d="M563.8 190L592.1 184L532.8 162.3Z" fill="#070707" stroke="#000000"></path><path d="M512.6 366.3L573.8 358.3L483.6 303.7Z" fill="#0b0b0b" stroke="#000000"></path><path d="M573.8 358.3L617.1 295.3L522.8 255.7Z" fill="#060606" stroke="#000000"></path><path d="M320.2 257.7L339.2 312.3L385.4 296.3Z" fill="#080808" stroke="#000000"></path><path d="M385.4 296.3L339.2 312.3L414.4 378Z" fill="#000000" stroke="#000000"></path><path d="M320.2 257.7L385.4 296.3L373.2 234Z" fill="#050505" stroke="#000000"></path><path d="M414.4 378L482.6 406L512.6 366.3Z" fill="#020202" stroke="#000000"></path><path d="M512.6 366.3L593.1 402L573.8 358.3Z" fill="#0a0a0a" stroke="#000000"></path><path d="M385.4 158.3L320.2 257.7L373.2 234Z" fill="#020202" stroke="#000000"></path><path d="M617.1 295.3L632.1 267.7L522.8 255.7Z" fill="#080808" stroke="#000000"></path><path d="M320.2 257.7L304.9 289.7L339.2 312.3Z" fill="#070707" stroke="#000000"></path><path d="M339.2 312.3L321.2 407L414.4 378Z" fill="#050505" stroke="#000000"></path><path d="M591.1 115.3L523.8 83.7L532.8 162.3Z" fill="#080808" stroke="#000000"></path><path d="M532.8 162.3L523.8 83.7L470.6 150.3Z" fill="#070707" stroke="#000000"></path><path d="M470.6 150.3L392.4 79.7L385.4 158.3Z" fill="#000000" stroke="#000000"></path><path d="M660.3 156.3L591.1 115.3L592.1 184Z" fill="#040404" stroke="#000000"></path><path d="M592.1 184L591.1 115.3L532.8 162.3Z" fill="#060606" stroke="#000000"></path><path d="M523.8 83.7L464.6 74.7L470.6 150.3Z" fill="#000000" stroke="#000000"></path><path d="M513.6 449.7L518.8 436L482.6 406Z" fill="#080808" stroke="#000000"></path><path d="M482.6 406L518.8 436L512.6 366.3Z" fill="#080808" stroke="#000000"></path><path d="M518.8 436L593.1 402L512.6 366.3Z" fill="#090909" stroke="#000000"></path><path d="M573.8 358.3L593.1 402L617.1 295.3Z" fill="#090909" stroke="#000000"></path><path d="M721.3 345.3L697.3 252.7L632.1 267.7Z" fill="#000000" stroke="#000000"></path><path d="M477.6 516.3L513.6 449.7L482.6 406Z" fill="#080808" stroke="#000000"></path><path d="M518.8 436L528.8 452.7L593.1 402Z" fill="#010101" stroke="#000000"></path><path d="M464.6 74.7L392.4 79.7L470.6 150.3Z" fill="#050505" stroke="#000000"></path><path d="M385.4 158.3L242.9 184L320.2 257.7Z" fill="#090909" stroke="#000000"></path><path d="M230.7 287.7L259.9 333.3L304.9 289.7Z" fill="#070707" stroke="#000000"></path><path d="M513.6 449.7L528.8 452.7L518.8 436Z" fill="#060606" stroke="#000000"></path><path d="M392.4 79.7L352.2 95.3L385.4 158.3Z" fill="#080808" stroke="#000000"></path><path d="M632.1 267.7L660.3 156.3L592.1 184Z" fill="#090909" stroke="#000000"></path><path d="M313.9 406L321.2 407L339.2 312.3Z" fill="#020202" stroke="#000000"></path><path d="M414.4 378L379.4 474.7L482.6 406Z" fill="#070707" stroke="#000000"></path><path d="M259.9 333.3L313.9 406L339.2 312.3Z" fill="#000000" stroke="#000000"></path><path d="M321.2 407L379.4 474.7L414.4 378Z" fill="#070707" stroke="#000000"></path><path d="M721.3 345.3L632.1 267.7L617.1 295.3Z" fill="#060606" stroke="#000000"></path><path d="M632.1 267.7L697.3 252.7L660.3 156.3Z" fill="#060606" stroke="#000000"></path><path d="M346.2 0L322.2 89.7L352.2 95.3Z" fill="#0a0a0a" stroke="#000000"></path><path d="M352.2 95.3L302.9 105.3L385.4 158.3Z" fill="#070707" stroke="#000000"></path><path d="M230.7 287.7L304.9 289.7L320.2 257.7Z" fill="#000000" stroke="#000000"></path><path d="M304.9 289.7L259.9 333.3L339.2 312.3Z" fill="#020202" stroke="#000000"></path><path d="M322.2 89.7L302.9 105.3L352.2 95.3Z" fill="#040404" stroke="#000000"></path><path d="M683.3 90.7L586.1 49.7L591.1 115.3Z" fill="#0b0b0b" stroke="#000000"></path><path d="M591.1 115.3L586.1 49.7L523.8 83.7Z" fill="#040404" stroke="#000000"></path><path d="M523.8 83.7L510.6 0L464.6 74.7Z" fill="#090909" stroke="#000000"></path><path d="M464.6 74.7L432.4 0L392.4 79.7Z" fill="#060606" stroke="#000000"></path><path d="M392.4 79.7L346.2 0L352.2 95.3Z" fill="#010101" stroke="#000000"></path><path d="M318.2 450.7L379.4 474.7L321.2 407Z" fill="#090909" stroke="#000000"></path><path d="M513.6 449.7L477.6 516.3L528.8 452.7Z" fill="#040404" stroke="#000000"></path><path d="M697.3 252.7L699.3 163L660.3 156.3Z" fill="#050505" stroke="#000000"></path><path d="M660.3 156.3L683.3 90.7L591.1 115.3Z" fill="#060606" stroke="#000000"></path><path d="M528.8 452.7L643.1 434.7L593.1 402Z" fill="#020202" stroke="#000000"></path><path d="M593.1 402L721.3 345.3L617.1 295.3Z" fill="#020202" stroke="#000000"></path><path d="M302.9 105.3L242.9 184L385.4 158.3Z" fill="#080808" stroke="#000000"></path><path d="M214.7 223L230.7 287.7L320.2 257.7Z" fill="#0a0a0a" stroke="#000000"></path><path d="M285.9 463.7L318.2 450.7L313.9 406Z" fill="#0b0b0b" stroke="#000000"></path><path d="M313.9 406L318.2 450.7L321.2 407Z" fill="#000000" stroke="#000000"></path><path d="M285.9 463.7L313.9 406L227.7 400Z" fill="#000000" stroke="#000000"></path><path d="M379.4 474.7L477.6 516.3L482.6 406Z" fill="#090909" stroke="#000000"></path><path d="M528.8 452.7L587.1 570.3L643.1 434.7Z" fill="#020202" stroke="#000000"></path><path d="M447.4 550.3L477.6 516.3L379.4 474.7Z" fill="#070707" stroke="#000000"></path><path d="M586.1 49.7L510.6 0L523.8 83.7Z" fill="#070707" stroke="#000000"></path><path d="M643.1 434.7L721.3 345.3L593.1 402Z" fill="#000000" stroke="#000000"></path><path d="M697.3 252.7L725.5 178L699.3 163Z" fill="#010101" stroke="#000000"></path><path d="M510.6 0L432.4 0L464.6 74.7Z" fill="#060606" stroke="#000000"></path><path d="M745.5 275.7L725.5 178L697.3 252.7Z" fill="#020202" stroke="#000000"></path><path d="M699.3 163L683.3 90.7L660.3 156.3Z" fill="#080808" stroke="#000000"></path><path d="M242.9 184L214.7 223L320.2 257.7Z" fill="#050505" stroke="#000000"></path><path d="M745.5 65.7L683.3 90.7L779.5 120.3Z" fill="#090909" stroke="#000000"></path><path d="M586.1 49.7L588.8 0L510.6 0Z" fill="#080808" stroke="#000000"></path><path d="M721.3 345.3L745.5 275.7L697.3 252.7Z" fill="#090909" stroke="#000000"></path><path d="M226.7 83.7L233.7 124.3L302.9 105.3Z" fill="#020202" stroke="#000000"></path><path d="M302.9 105.3L233.7 124.3L242.9 184Z" fill="#090909" stroke="#000000"></path><path d="M242.9 184L134.5 136.3L214.7 223Z" fill="#080808" stroke="#000000"></path><path d="M268.9 49.7L302.9 105.3L322.2 89.7Z" fill="#040404" stroke="#000000"></path><path d="M227.7 400L313.9 406L259.9 333.3Z" fill="#090909" stroke="#000000"></path><path d="M318.2 450.7L332.2 511.3L379.4 474.7Z" fill="#000000" stroke="#000000"></path><path d="M447.4 550.3L522.8 534.3L477.6 516.3Z" fill="#050505" stroke="#000000"></path><path d="M477.6 516.3L522.8 534.3L528.8 452.7Z" fill="#050505" stroke="#000000"></path><path d="M622.1 0L588.8 0L586.1 49.7Z" fill="#0b0b0b" stroke="#000000"></path><path d="M185.7 369.3L227.7 400L259.9 333.3Z" fill="#000000" stroke="#000000"></path><path d="M185.7 369.3L259.9 333.3L230.7 287.7Z" fill="#010101" stroke="#000000"></path><path d="M709.3 493.7L721.3 407L643.1 434.7Z" fill="#0a0a0a" stroke="#000000"></path><path d="M643.1 434.7L721.3 407L721.3 345.3Z" fill="#080808" stroke="#000000"></path><path d="M721.3 345.3L749.5 363.3L745.5 275.7Z" fill="#060606" stroke="#000000"></path><path d="M432.4 0L346.2 0L392.4 79.7Z" fill="#090909" stroke="#000000"></path><path d="M285.9 463.7L332.2 511.3L318.2 450.7Z" fill="#050505" stroke="#000000"></path><path d="M721.3 407L749.5 363.3L721.3 345.3Z" fill="#020202" stroke="#000000"></path><path d="M346.2 0L268.9 49.7L322.2 89.7Z" fill="#070707" stroke="#000000"></path><path d="M332.2 511.3L447.4 550.3L379.4 474.7Z" fill="#070707" stroke="#000000"></path><path d="M683.3 90.7L622.1 0L586.1 49.7Z" fill="#010101" stroke="#000000"></path><path d="M268.9 49.7L226.7 83.7L302.9 105.3Z" fill="#0b0b0b" stroke="#000000"></path><path d="M105.2 217L132.5 282.7L214.7 223Z" fill="#020202" stroke="#000000"></path><path d="M285.9 463.7L281.9 543.3L332.2 511.3Z" fill="#040404" stroke="#000000"></path><path d="M227.7 400L221.7 435.7L285.9 463.7Z" fill="#0b0b0b" stroke="#000000"></path><path d="M185.7 369.3L221.7 435.7L227.7 400Z" fill="#0a0a0a" stroke="#000000"></path><path d="M161.5 354.3L230.7 287.7L132.5 282.7Z" fill="#050505" stroke="#000000"></path><path d="M161.5 354.3L185.7 369.3L230.7 287.7Z" fill="#020202" stroke="#000000"></path><path d="M132.5 282.7L230.7 287.7L214.7 223Z" fill="#000000" stroke="#000000"></path><path d="M185.7 369.3L113.5 430.7L221.7 435.7Z" fill="#040404" stroke="#000000"></path><path d="M268.9 49.7L221.7 0L226.7 83.7Z" fill="#020202" stroke="#000000"></path><path d="M346.2 0L270.9 0L268.9 49.7Z" fill="#060606" stroke="#000000"></path><path d="M779.5 120.3L683.3 90.7L699.3 163Z" fill="#010101" stroke="#000000"></path><path d="M683.3 90.7L716.3 0L622.1 0Z" fill="#000000" stroke="#000000"></path><path d="M779.5 120.3L699.3 163L725.5 178Z" fill="#0b0b0b" stroke="#000000"></path><path d="M779.5 120.3L725.5 178L834.8 166Z" fill="#040404" stroke="#000000"></path><path d="M587.1 570.3L709.3 493.7L643.1 434.7Z" fill="#090909" stroke="#000000"></path><path d="M721.3 407L797.5 417L749.5 363.3Z" fill="#000000" stroke="#000000"></path><path d="M562.8 600L587.1 570.3L522.8 534.3Z" fill="#070707" stroke="#000000"></path><path d="M522.8 534.3L587.1 570.3L528.8 452.7Z" fill="#0a0a0a" stroke="#000000"></path><path d="M834.8 166L725.5 178L745.5 275.7Z" fill="#040404" stroke="#000000"></path><path d="M134.5 136.3L242.9 184L233.7 124.3Z" fill="#070707" stroke="#000000"></path><path d="M447.4 550.3L516.6 600L522.8 534.3Z" fill="#000000" stroke="#000000"></path><path d="M378.4 600L516.6 600L447.4 550.3Z" fill="#050505" stroke="#000000"></path><path d="M231.7 531.3L281.9 543.3L285.9 463.7Z" fill="#080808" stroke="#000000"></path><path d="M332.2 511.3L378.4 600L447.4 550.3Z" fill="#070707" stroke="#000000"></path><path d="M231.7 531.3L285.9 463.7L221.7 435.7Z" fill="#070707" stroke="#000000"></path><path d="M721.3 507.3L743.5 478.7L709.3 493.7Z" fill="#000000" stroke="#000000"></path><path d="M709.3 493.7L743.5 478.7L721.3 407Z" fill="#000000" stroke="#000000"></path><path d="M842.8 308.3L836.8 280.7L745.5 275.7Z" fill="#000000" stroke="#000000"></path><path d="M645.1 600L721.3 507.3L709.3 493.7Z" fill="#050505" stroke="#000000"></path><path d="M731.5 0L716.3 0L745.5 65.7Z" fill="#0b0b0b" stroke="#000000"></path><path d="M745.5 65.7L716.3 0L683.3 90.7Z" fill="#070707" stroke="#000000"></path><path d="M516.6 600L562.8 600L522.8 534.3Z" fill="#060606" stroke="#000000"></path><path d="M587.1 570.3L645.1 600L709.3 493.7Z" fill="#020202" stroke="#000000"></path><path d="M323.2 600L378.4 600L332.2 511.3Z" fill="#0b0b0b" stroke="#000000"></path><path d="M852.8 429L797.5 417L839.8 457.7Z" fill="#090909" stroke="#000000"></path><path d="M743.5 478.7L797.5 417L721.3 407Z" fill="#0b0b0b" stroke="#000000"></path><path d="M842.8 308.3L745.5 275.7L749.5 363.3Z" fill="#070707" stroke="#000000"></path><path d="M270.9 0L221.7 0L268.9 49.7Z" fill="#020202" stroke="#000000"></path><path d="M139.5 94.7L134.5 136.3L233.7 124.3Z" fill="#050505" stroke="#000000"></path><path d="M139.5 94.7L233.7 124.3L226.7 83.7Z" fill="#000000" stroke="#000000"></path><path d="M840.8 59.7L731.5 0L745.5 65.7Z" fill="#070707" stroke="#000000"></path><path d="M113.5 430.7L231.7 531.3L221.7 435.7Z" fill="#020202" stroke="#000000"></path><path d="M281.9 543.3L323.2 600L332.2 511.3Z" fill="#050505" stroke="#000000"></path><path d="M112.5 419L185.7 369.3L161.5 354.3Z" fill="#0a0a0a" stroke="#000000"></path><path d="M797.5 417L842.8 308.3L749.5 363.3Z" fill="#090909" stroke="#000000"></path><path d="M836.8 280.7L834.8 166L745.5 275.7Z" fill="#050505" stroke="#000000"></path><path d="M779.5 120.3L840.8 59.7L745.5 65.7Z" fill="#040404" stroke="#000000"></path><path d="M861.8 145.3L834.8 166L900 189Z" fill="#020202" stroke="#000000"></path><path d="M102.5 191L105.2 217L214.7 223Z" fill="#040404" stroke="#000000"></path><path d="M132.5 282.7L101.2 355.3L161.5 354.3Z" fill="#050505" stroke="#000000"></path><path d="M221.7 0L139.5 94.7L226.7 83.7Z" fill="#000000" stroke="#000000"></path><path d="M134.5 136.3L102.5 191L214.7 223Z" fill="#080808" stroke="#000000"></path><path d="M302.9 600L323.2 600L281.9 543.3Z" fill="#000000" stroke="#000000"></path><path d="M73.2 168.3L102.5 191L134.5 136.3Z" fill="#080808" stroke="#000000"></path><path d="M562.8 600L645.1 600L587.1 570.3Z" fill="#090909" stroke="#000000"></path><path d="M721.3 507.3L753.5 562.3L743.5 478.7Z" fill="#090909" stroke="#000000"></path><path d="M232.7 600L302.9 600L281.9 543.3Z" fill="#010101" stroke="#000000"></path><path d="M54.2 238.7L132.5 282.7L105.2 217Z" fill="#000000" stroke="#000000"></path><path d="M54.2 238.7L101.2 355.3L132.5 282.7Z" fill="#060606" stroke="#000000"></path><path d="M101.2 355.3L112.5 419L161.5 354.3Z" fill="#090909" stroke="#000000"></path><path d="M231.7 531.3L232.7 600L281.9 543.3Z" fill="#090909" stroke="#000000"></path><path d="M900 248.7L834.8 166L836.8 280.7Z" fill="#0b0b0b" stroke="#000000"></path><path d="M834.8 166L861.8 145.3L779.5 120.3Z" fill="#070707" stroke="#000000"></path><path d="M47.2 393L113.5 430.7L112.5 419Z" fill="#040404" stroke="#000000"></path><path d="M112.5 419L113.5 430.7L185.7 369.3Z" fill="#0b0b0b" stroke="#000000"></path><path d="M139.5 94.7L105.2 79.7L134.5 136.3Z" fill="#000000" stroke="#000000"></path><path d="M122.5 0L105.2 79.7L139.5 94.7Z" fill="#0b0b0b" stroke="#000000"></path><path d="M709.3 600L753.5 562.3L721.3 507.3Z" fill="#0b0b0b" stroke="#000000"></path><path d="M797.5 417L852.8 429L842.8 308.3Z" fill="#0a0a0a" stroke="#000000"></path><path d="M105.2 79.7L73.2 168.3L134.5 136.3Z" fill="#0b0b0b" stroke="#000000"></path><path d="M102.5 191L54.2 238.7L105.2 217Z" fill="#0b0b0b" stroke="#000000"></path><path d="M839.8 457.7L797.5 417L743.5 478.7Z" fill="#020202" stroke="#000000"></path><path d="M900 295.3L900 248.7L836.8 280.7Z" fill="#090909" stroke="#000000"></path><path d="M645.1 600L709.3 600L721.3 507.3Z" fill="#080808" stroke="#000000"></path><path d="M861.8 145.3L840.8 59.7L779.5 120.3Z" fill="#050505" stroke="#000000"></path><path d="M813.8 512.3L839.8 457.7L743.5 478.7Z" fill="#040404" stroke="#000000"></path><path d="M154.5 600L232.7 600L231.7 531.3Z" fill="#000000" stroke="#000000"></path><path d="M73.2 168.3L54.2 238.7L102.5 191Z" fill="#070707" stroke="#000000"></path><path d="M101.2 355.3L47.2 393L112.5 419Z" fill="#0a0a0a" stroke="#000000"></path><path d="M814.8 600L813.8 512.3L753.5 562.3Z" fill="#060606" stroke="#000000"></path><path d="M753.5 562.3L813.8 512.3L743.5 478.7Z" fill="#040404" stroke="#000000"></path><path d="M900 295.3L836.8 280.7L842.8 308.3Z" fill="#020202" stroke="#000000"></path><path d="M861.8 145.3L900 115.3L840.8 59.7Z" fill="#020202" stroke="#000000"></path><path d="M900 363L900 295.3L842.8 308.3Z" fill="#050505" stroke="#000000"></path><path d="M900 248.7L900 189L834.8 166Z" fill="#090909" stroke="#000000"></path><path d="M709.3 600L742.5 600L753.5 562.3Z" fill="#050505" stroke="#000000"></path><path d="M900 489.7L900 363L852.8 429Z" fill="#0b0b0b" stroke="#000000"></path><path d="M852.8 429L900 363L842.8 308.3Z" fill="#0a0a0a" stroke="#000000"></path><path d="M900 489.7L852.8 429L839.8 457.7Z" fill="#040404" stroke="#000000"></path><path d="M221.7 0L122.5 0L139.5 94.7Z" fill="#000000" stroke="#000000"></path><path d="M0 196L54.2 238.7L73.2 168.3Z" fill="#070707" stroke="#000000"></path><path d="M900 189L900 115.3L861.8 145.3Z" fill="#0a0a0a" stroke="#000000"></path><path d="M0 356.3L47.2 393L101.2 355.3Z" fill="#020202" stroke="#000000"></path><path d="M113.5 430.7L85.2 498.7L231.7 531.3Z" fill="#0a0a0a" stroke="#000000"></path><path d="M47.2 393L85.2 498.7L113.5 430.7Z" fill="#040404" stroke="#000000"></path><path d="M900 115.3L900 66.7L840.8 59.7Z" fill="#080808" stroke="#000000"></path><path d="M840.8 59.7L864.8 0L731.5 0Z" fill="#080808" stroke="#000000"></path><path d="M900 66.7L864.8 0L840.8 59.7Z" fill="#000000" stroke="#000000"></path><path d="M101.5 561.3L154.5 600L231.7 531.3Z" fill="#060606" stroke="#000000"></path><path d="M0 196L0 247.7L54.2 238.7Z" fill="#080808" stroke="#000000"></path><path d="M54.2 238.7L0 356.3L101.2 355.3Z" fill="#050505" stroke="#000000"></path><path d="M0 196L73.2 168.3L0 113.3Z" fill="#070707" stroke="#000000"></path><path d="M0 113.3L73.2 168.3L105.2 79.7Z" fill="#050505" stroke="#000000"></path><path d="M742.5 600L814.8 600L753.5 562.3Z" fill="#020202" stroke="#000000"></path><path d="M900 505.3L900 489.7L839.8 457.7Z" fill="#0b0b0b" stroke="#000000"></path><path d="M63.2 542.3L101.5 561.3L85.2 498.7Z" fill="#000000" stroke="#000000"></path><path d="M85.2 498.7L101.5 561.3L231.7 531.3Z" fill="#000000" stroke="#000000"></path><path d="M63.2 542.3L85.2 498.7L0 501.3Z" fill="#0b0b0b" stroke="#000000"></path><path d="M900 505.3L839.8 457.7L813.8 512.3Z" fill="#060606" stroke="#000000"></path><path d="M0 247.7L0 356.3L54.2 238.7Z" fill="#090909" stroke="#000000"></path><path d="M900 600L900 505.3L813.8 512.3Z" fill="#0b0b0b" stroke="#000000"></path><path d="M900 66.7L900 0L864.8 0Z" fill="#000000" stroke="#000000"></path><path d="M0 100.7L0 113.3L105.2 79.7Z" fill="#070707" stroke="#000000"></path><path d="M122.5 0L47.2 0L105.2 79.7Z" fill="#0a0a0a" stroke="#000000"></path><path d="M47.2 0L0 100.7L105.2 79.7Z" fill="#000000" stroke="#000000"></path><path d="M0 446.7L85.2 498.7L47.2 393Z" fill="#080808" stroke="#000000"></path><path d="M101.5 561.3L61.2 600L154.5 600Z" fill="#0a0a0a" stroke="#000000"></path><path d="M0 356.3L0 437L47.2 393Z" fill="#090909" stroke="#000000"></path><path d="M0 437L0 446.7L47.2 393Z" fill="#060606" stroke="#000000"></path><path d="M0 446.7L0 501.3L85.2 498.7Z" fill="#090909" stroke="#000000"></path><path d="M0 600L61.2 600L63.2 542.3Z" fill="#0a0a0a" stroke="#000000"></path><path d="M63.2 542.3L61.2 600L101.5 561.3Z" fill="#000000" stroke="#000000"></path><path d="M47.2 0L0 0L0 100.7Z" fill="#080808" stroke="#000000"></path><path d="M814.8 600L900 600L813.8 512.3Z" fill="#060606" stroke="#000000"></path><path d="M0 501.3L0 600L63.2 542.3Z" fill="#020202" stroke="#000000"></path></g></svg>